# xmcd
#
# Track frame offsets:
#	187
#	11355
#	24380
#	41887
#	57112
#	70962
#	86540
#	100695
#	111437
#	127942
#
# Disc length: 1869 seconds
#
# Revision: 5
# Processed by: cddbd v1.5.2PL0 Copyright (c) Steve Scherf et al.
# Submitted via: audiograbber 1.83.01
#
DISCID=79074b0a
DTITLE=George Jones - High-Tech Redneck
DYEAR=1993
DGENRE=Country
TTITLE0=High-Tech Redneck
TTITLE1=I've Still Got Some Hurtin' To Do
TTITLE2=The Love In Your Eyes
TTITLE3=The Visit
TTITLE4=Silent Partners
TTITLE5=Tear Me Out Of The Picture
TTITLE6=A Thousand Times A Day
TTITLE7=Never Bit A Bullet Like This (Duet With Sammy Kershaw)
TTITLE8=Forever's Here To Stay
TTITLE9=Hello Darlin'
EXTD=
EXTT0=
EXTT1=
EXTT2=
EXTT3=
EXTT4=
EXTT5=
EXTT6=
EXTT7=
EXTT8=
EXTT9=
PLAYORDER=
